<?xml version="1.0" encoding="UTF-8"?>
<svg id="Layer_2" data-name="Layer 2" xmlns="http://www.w3.org/2000/svg" width="998.3" height="1102.89" viewBox="0 0 998.3 1102.89">
  <defs>
    <style>
      .cls-1 {
        fill: #0c0c0c;
      }
    </style>
  </defs>
  <g id="Layer_1-2" data-name="Layer 1">
    <path class="cls-1" d="M948.68,481.78c17.37,17.65,33.45,36.22,49.61,54.93-17.32-39.08-44.53-65.88-78.16-91.51-8.22-6.28-21.16-13.67-26.89-21.99,25.45,4.39,77.15,59.82,94.19,79.73-29.98-58.07-87.5-84.08-141.04-115.63,41.67,11.41,77.84,29.52,113.64,53.63-45.97-54.1-175.31-94.7-245.58-103.39-6.28-7.02-14.37-14.32-17.6-23.28,5.08,1.39,8.82,3.97,13.26,6.75-1.66-5.08-3.65-9.61-5.91-14.41,8.55,7.85,15.11,19.59,24.58,25.82-4.85-11.83-11.6-22.77-18.06-33.82,13.03,12.01,25.55,24.07,37.47,37.14-4.8-8.36-9.56-16.68-13.81-25.36,4.57.83,6.51,3.28,10.12,6.24-.92-4.67-2.26-8.78-6.19-11.87-3.51-2.82-8.08-4.8-12.1-6.84,18.16,2.36,29.75,13.86,46.06,18.57-3.1-2.12-6.74-7.02-10.26-12.2-1.43-2.08-2.82-4.2-4.16-6.24,12.66,9.38,25.45,18.57,36.73,29.57-9.05-15.2-19.08-26.47-32.01-38.67,20.14,10.76,36.73,24.85,55.02,38.25-4.94-10.35-13.72-19.86-20.74-28.97,11.18,5.59,22.13,11.69,33.17,17.55l-25.82-29.24c8.45,2.03,16.45,10.21,23.19,15.57l-3.46-6.98,3.1,2.45c10.63,6.14,19.26,15.52,29.94,21.07l-6.79-13.72c6.05,6.56,11.87,13.77,19.17,18.94-2.54-6.01-4.99-11.97-7.35-18.06,7.81,5.82,13.03,13.91,18.76,21.67-1.25-8.78-6.51-18.16-10.02-26.33,7.76,8.96,14.6,17.18,24.25,24.25l-5.96-10.39c10.02,1.43,23.65,12.61,32.94,18.15-10.58-9.19-21.07-18.29-30.81-28.36,8.5.32,34.46,18.48,46.43,22.82l3.6,1.29c-18.39-11.64-29.89-16.54-44.3-32.94,17.92,10.39,31.41,15.24,48.88,26.33-8.82-10.95-18.8-18.57-30.12-26.7-21.34-10.44-43.15-19.82-65.55-27.81-7.48-2.68-24.02-5.27-29.47-9.56,21.44-6.65,71.23,13.63,90.68,23.05-21.62-37.65-135.82-42.78-136.42-43.29l-1.02-.83,13.4-2.59-4.62-5.64c.88.09,1.8.14,2.73.14,3.97,0,8.22-.69,12.01-1.02,15.01-1.34,30.67.78,45.69,1.99-9.79-6.79-23.88-6.14-35.29-11.09,3.51-2.68,14.14-1.52,18.89-1.57-9.84-6.93-27.81-10.07-39.54-13.44,17.55,1.52,36.68,6.98,54.14,4.76-1.57-1.06-2.91-2.36-4.25-3.6-3.79-3.65-8.78-5.87-14.04-6.1-6.84-.32-13.67-1.25-20.46-1.94,23.98-4.02,47.58-8.08,71.93-9.19-15.71-3.51-28.64-2.68-44.35-3.6-4.67-.23-7.71.51-10.9-3l12.93-6.01c-3.83-2.91-28.04-2.36-34.32-3.33l-2.36-.42c-10.86,1.15-21.76,2.4-32.61,3.33,9.19-4.99,26.1-10.12,33.35-16.82-9.66,1.99-18.25,3.74-28.13,3.28,9.38-7.02,26.42-11,37.47-16.4-23.61,3.7-41.85,9.01-62.69,21.02,1.94-4.16,3.7-6.24,6.7-9.61-3.88,1.66-9.56,2.49-13.35,4.39,14.64-16.26,21.76-22.5,28.6-30.3-13.58,10.21-34.92,28.41-50.86,33.54,9.01-14.78,24.3-24.71,38.11-34.56-58.81,20.42-88.37,47.67-134.71,86.9l-15.24-12.8,15.85-5.31c-7.71-7.9-16.49-12.38-26.33-17.18,9.42,1.39,30.67,6.79,38.07,1.43l-.79-2.77,9.56-1.62c-2.26-3.51-4.02-8.59-7.11-11.41,6.61-3.05,11.09-3.6,18.39-3.6-3.65-4.48-12.52-13.03-12.66-18.39l12.89-2.49c-7.25-3.56-14.88-6.1-22.22-9.33,15.24,1.99,29.57,3.65,45,3.05l3.33-.09c.65-.05,1.29-.09,1.99-.09-12.66-3.23-25.22-6.56-37.93-9.47l-1.62-.14c9.24-.18,23.42,1.43,31.92-1.62-16.26-4.34-32.75-4.67-49.43-5.22l35.2-4.9c-12.94-4.34-31.18-1.89-45-3.28l2.31-.14c17.37-1.25,34.37-5.22,51.65-7.44-8.82-.51-52.06,1.34-56.08-.83,5.45-6.93,16.35-7.44,24.71-8.41,13.81-1.57,36.86.6,48.69-5.59-14.83-8.27-50.03-8.92-66.25-4.67-.79.18-1.57.46-2.4.69,24.39-17.09,64.63-17.23,93.96-17.88-13.26-5.36-25.08-9.98-39.41-11.73-.55-.05-1.11-.14-1.66-.23,16.58-4.34,30.95,2.77,47.72,4.62-11.96-4.71-23.93-7.71-36.4-10.72,12.89-2.22,28.97-3.05,41.11-7.21-16.26-1.43-32.43-2.77-48.69-3.56,23.05-9.42,43.84-11.04,68.46-12.98-17.51-1.89-34.92-3.65-52.57-4.34,25.5-4.34,40.98.55,62.83-1.66-2.4-4.53-9.7-6.24-14.51-7.62-23.28-6.7-50.86-.32-73.54,6.47l24.25-17.83c-20.88,6.38-41.39,19.59-60.33,30.26,5.17-6.19,11.96-12.75,14.51-20.42-13.58,10.9-27.02,28.83-42.27,36.63l3.88-12.43c-14.14,6.38-33.35,31.87-46.43,43.24,9.47-13.3,19.49-25.55,30.4-37.7-50.4,30.49-82.14,104.31-98.31,158.45-11.32-21.07-32.52-70.03-48.37-84.49.42,3.28,1.11,9.75,2.08,14.6-14.32-4.94-21.43-34.56-34.74-35.43l3.74,8.45c-18.76-5.87-36.36-32.34-53.91-43.19-12.61-7.85-27.72-12.06-41.9-16.21-5.13-1.52-14.78-5.13-19.54-3.05,1.2.6,2.4,1.2,3.56,1.8,6.14,3.28,8.13,4.76,10.72,11.23-1.62,3.65-2.26,4.9-5.22,7.81,1.2.23,2.4.42,3.6.74,6.79,1.66,16.4,9.52,19.73,15.57l-18.2-7.44,10.49,10.21-2.86.37c-4.57.42-9.15.83-13.67,1.62l16.03,2.59c14.27,2.36,27.95,12.34,40.38,19.63-10.86-2.96-50.82-16.95-60.19-12.29,10.67,6.56,24.99,6.56,34.51,12.94l-3.37-.28c-6.79-.42-12.7-1.62-18.8,1.94,6.93.69,15.15,2.91,21.76,5.08-8.68,5.64-28.41,6.65-38.76,7.07,13.86,5.13,36.96,12.24,54.7,16.03-18.8,4.02-37.1,4.53-56.41,5.13l29.57,6.65-10.49,4.62.42,1.99c10.3,2.03,20.33,2.73,30.77,3.37-10.35,3.7-20.6,7.35-31.23,10.16,22.77,1.85,44.63,9.42,67.4,12.7.88.14,1.75.37,2.63.55-.79.14-1.52.28-2.26.42-18.89,3.33-38.53,1.66-57.56.46,18.2,7.71,34.92,14.18,54.7,16.68l1.34,2.68-39.41-.28c14.18,6.7,31.46,7.53,46.89,8.68-12.61,7.71-25.22,15.15-38.3,22.04-79.41-24.62-174.3-30.67-255.1-8.36-31.55,8.69-59.45,22.64-91.47,29.61,15.38-3,95.16-21.67,103.11-17.83-12.06,4.16-35.39,9.1-52.8,15.61h-.05c-1.29.23-4.16,1.43-7.85,3.23-.74.37-1.48.74-2.26,1.11-.69.37-1.39.69-2.13,1.11-.23.09-.42.23-.65.32-12.01,6.19-28.18,15.34-31.51,17.05,5.82,3.37,13.63,2.03,19.86.18,5.31-1.52,9.93-3.79,14.78-6.38,9.33-4.99,20-7.53,30.12-10.44-17.55,11.64-34.32,23.7-50.77,36.86,15.2-6.7,29.98-12.7,45.92-17.37-14.6,13.72-32.71,24.11-45.5,39.45,16.35-10.16,64.67-44.44,84.77-50.77-16.12,12.15-36.45,31.32-45.69,41.3,18.62-10.53,36.36-21.94,54.14-33.72-20.6,19.77-44.21,38.11-60.89,61.44,19.96-16.63,39.17-33.86,60.84-48.32l-1.29,1.71c-8.82,11.18-20.23,19.96-28.18,31.78l35.48-28.13-9.89,24.76,1.25-.65-2.12,3.93c4.25-2.4,6.28-5.13,9.19-9.01.14,14.97-11.23,31-9.56,45.36,11.36-15.66,17.05-34.09,28.73-49.85l-15.2,39.73c13.67-13.12,22.27-30.4,31.41-46.8-6.51,17.83-14.83,35.76-18.94,54.28,7.58-10.67,12.98-22.5,19.91-33.54-2.12,11.41-4.94,23.14-5.68,34.74,5.45-13.63,10.86-27.35,15.98-41.11-3.05,21.39-6.33,42.69-10.02,63.98l.92-1.89c6.79-14.04,8.22-30.12,21.34-39.91,0,6.1.69,12.47-.28,18.48,1.62-3.23,4.67-11.36,7.62-19.49,2.96-8.13,5.73-16.35,6.93-19.77l.51,26.66c.14-.74.32-1.52.51-2.26,2.73-10.95,7.62-20.33,12.7-30.3l-7.53,38.85c8.13-14.55,16.08-29.2,23.98-43.84l-.65,3.19c-3.97,19.03-12.52,36.36-16.35,55.39,7.76-16.03,16.72-31.23,26.24-46.33-2.45,8.5-10.39,28.13-8.68,36.08,8.04-12.33,13.54-25.64,21.85-37.93-2.96,17.37-3.83,35.06-3.6,52.71,2.68-5.4,7.99-13.03,12.33-20.7.05,3.1.55,6.14,1.89,9.29,4.62-3.97,7.25-8.68,10.35-13.86l3.79,5.08c2.4-2.26,6.28-5.82,9.47-9.38-.88,7.95-2.49,15.57-.92,23.51,2.36-3.51,2.86-5.36,4.11-9.33,2.22-7.07,5.41-12.43,9.56-18.48.51.42.83,5.5.83,6.47.28,6.24-.74,10.21,1.62,16.4-15.57,12.15-34.92,19.91-51.83,30.21-52.29,31.92-85.51,74.61-114.89,127.32l13.21-15.34c-7.25,14-21.07,45.46-20.1,53.26,1.06-2.17,2.03-4.99,3.33-6.93,1.34-2.03,2.77-3.97,4.2-5.96l.6,19.4c1.76-4.85,4.2-12.01,6.65-19.13,2.49-7.11,5.04-14.23,6.98-18.99-.18,20,2.17,38.3,5.87,57.93,7.53-9.61,12.15-33.26,18.99-46.06,4.8-9.1,9.42-18.2,13.21-27.76.18,9.56-.55,20.37,1.94,29.61.92-7.53,2.13-14.83,3.7-22.27,6.05,5.5,10.21,54.14,12.89,66.38-1.85-27.76-1.8-53.36.69-81.12,2.45,18.62,2.49,34.92.97,53.73,5.04-18.29,7.95-37,12.75-55.34,1.39,19.73,3.7,36.45,8.22,55.71.23,1.02.32,2.12.46,3.19l.55.05c.09,1.38.23,2.72.32,4.05l1.06-3.88-1.38-.18c-1.89-22.86-4.25-46.79-2.49-69.51,4.34,10.26,6.93,21.53,8.96,32.98,1.99,11.46,3.33,23.1,5.08,34.14,0-1.11.05-2.22.05-3.33.55-14.32,1.8-25.18,9.7-36.26,2.08,8.73,5.64,19.17,8.18,24.53,1.06-4.57,2.86-13.26,4.3-21.81,1.85,12.15,3.56,25.36,4.07,33.08,3.28-17.65,2.86-35.94,3.05-53.87h.18l-.14-.05v-1.71l5.87,17.74c.88-8.96,3.37-16.82,6.51-24.58,3.14-7.71,6.98-15.24,10.53-23.61-2.08,11.46-6.33,29.8-3.37,41.16,3.74-3.14,4.07-4.76,5.73-9.24l7.53-25.13c2.63,15.15,5.4,30.3,7.16,45.64.28-15.34-.83-34.74,4.62-49.29,6.42,6.42,5.31,16.12,8.13,24.62,5.91-10.26,6.79-26.52,10.39-38.2,2.4,7.71,4.06,15.38,9.38,21.67l2.26-.14c4.07-6.65,11.13-14.97,17.6-20.05-4.3,9.52-10.76,17.92-15.61,27.21-16.03,30.4-28.09,63.29-34.28,97.29l6.1-6.24c-2.12,12.84-8.73,25.36-13.72,37.33l23.51-31.09c-3.88,21.34-5.68,42.13-5.68,63.8,6.74-16.49,13.3-33.08,20.28-49.48-3.51,26.1-10.58,51.46-12.15,77.84,6.01-17.05,10.44-34.18,14.6-51.79.46,28.92-3.05,71.23,3.19,98.49l1.8-.51,3.28-25.92c8.87,32.01,18.15,63.2,31.14,93.82,1.66-10.72,1.29-19.22-2.63-29.29,13.35,21.62,40.24,62.92,60.33,75.3-1.48-4.39-3.37-6.28-6.38-9.61-12.47-14-21.99-32.24-31.64-48.37,12.7,13.91,23.98,30.81,38.34,42.78-6.7-10.21-23.1-29.43-24.39-41.25,6.24,7.16,14.14,19.17,22.5,23.33-5.82-13.77-19.03-23.33-23.74-36.82,11.55,9.24,21.3,21.71,30.4,33.31-10.76-20.56-23.61-39.77-34.6-60.15,6.42,6.88,12.7,14.37,19.59,20.79-1.8-9.75-19.03-33.26-24.62-43.79,12.8,11.6,25.41,23.33,37.88,35.25-9.7-13.67-19.17-27.03-26.89-41.9,5.68,3.42,12.89,9.05,19.45,9.38-13.4-21.8-26.93-38.48-33.68-63.84,5.82,7.07,12.06,16.82,19.63,21.81l1.25-5.41,9.33,6.51c.37-9.61-18.11-33.12-23.84-42.04,9.84,6.24,23.38,9.56,34.09,14.09l-31.18-39.59c20.14,13.07,36.08,26.75,51.92,44.76-7.16-12.38-16.82-25.87-21.57-39.27,9.65,8.27,14,10.02,26.84,10.86,7.81,53.59,2.73,110.73,2.31,164.83-.65,84.68.18,167.37-8.13,251.77-2.13,21.3-3.1,43.66-7.62,64.58,29.47-1.75,54.14-1.62,83.06,4.34-5.04-42.55.32-85.51-.42-128.24-1.76-99.64-8.27-199.57-11.64-299.21-1.15-33.72,3.83-68.79.51-102.19,6.93,6.74,13.12,13.58,22.04,17.6-1.8-13.12-16.95-26.06-21.9-39.41,4.53-.65,7.21,2.49,10.76,5.17,10.02,7.44,18.11,17.65,26.24,27.02-12.43-26.42-29.47-43.93-45.73-67.31,18.94,11.97,34.19,27.9,49.25,44.3-12.15-24.07-32.8-39.96-48.37-61.44,16.45,11.36,30.58,24.53,44.3,38.99-7.53-21.48-24.21-39.36-32.61-60.93,10.21,3.05,20.33,20.93,25.22,30.03,2.08,3.93,5.73,6.42,7.76,10.44-5.96-16.81-11.09-35.16-18.43-51.37-4.16-9.15-8.78-17.28-10.12-27.72l7.9,3.37c2.68-11.87-16.03-20,.18-29.89,2.91-1.76,5.22-2.08,8.55-2.26,4.9,2.91,5.87,6.61,8.08,11.6.69-.51,1.34-1.06,2.03-1.57,2.96-2.08,1.71-1.43,5.17-2.36,1.34,4.39,1.34,8.36,1.43,12.98.6-1.06,1.2-2.08,1.8-3.1,1.34-2.18,2.65-3.96,4.15-5.71l-1.84,20.22c3.6-2.03,9.05-12.15,11.64-15.94,5.22,4.99,7.11,15.8,9.24,22.73,1.98-2.17,1.58-5.63,1.43-8.71,1.83,5.84,3.92,12.27,3.88,17.95,4.02-2.12,2.03-.74,5.82-4.53,4.2,3.88,6.7,5.08,8.36,10.62l.32-7.83c9.04,17.08,23.5,33.44,28.37,52.13-2.54-13.81-5.64-27.3-9.29-40.93,20.93,25.08,39.31,53.91,55.44,82.28-5.68-29.89-14.14-58.95-14.27-89.57,9.15,17.18,13.91,34.92,19.03,53.54-1.46-18.97-2.98-37.67-6.1-56.45l8.07,9.15-.69-6.8c-.36-3.51-1.39-6.94-3.16-10-3.32-5.71-5.91-11.51-5.13-18.5,11.96,15.38,16.91,41.9,25.78,60.06-4.11-16.4-7.71-32.48-10.16-49.2,6.01,10.95,15.85,28.6,20.37,43.61-1.76-11.69-6.61-24.71-4.67-34.6l4.76,8.59c.46-6.7-.79-12.24-2.03-18.76-.69-3.46-.69-2.08-.28-4.76,8.36,14,21.02,41.67,34.19,50.31.09-4.25-.18-5.91-1.15-9.89-4.34-17.88-6.84-36.22-10.99-54.19,6.28,15.34,19.08,45.5,30.07,61.76-2.45-7.02-4.48-13.77-5.77-21.2-1.29-7.21-3.51-11.78-7.67-17.74,21.94,14.6,31.04,35.8,39.91,59.73-3-25.27-10.02-46.1-19.91-69.48,9.01,12.75,17.74,25.92,27.9,37.74-4.16-11.18-8.73-22.36-12.2-33.77,12.43,8.18,22.64,15.8,33.26,26.15,1.71,1.66,3.51,3.28,5.31,4.85-4.43-10.02-10.3-18.06-16.82-26.75l18.71,10.44-4.99-11.36c13.21,2.96,27.49,39.96,39.77,49.38-4.34-10.63-8.64-21.25-12.8-31.97l1.85,2.08c5.59,6.47,24.71,44.9,26.05,45.64-2.91-22.36-10.86-41.67-19.22-62.41,11.23,15.48,19.03,31.83,27.53,48.88-2.82-11.69-6.01-23.42-7.62-35.39,3.19,3.56,3.46,4.48,4.99,8.68,5.31,14.69,12.8,29.15,19.22,43.38-4.34-18.25-10.12-35.8-16.21-53.54l1.99,2.77c7.11,10.02,15.38,33.91,24.21,39.68.55-5.41.28-8.92-.46-13.54,5.27,13.31,12.1,30.07,18.43,37.6-.6-23.93-17.55-36.45-21.48-57.05,16.26,16.35,27.72,35.53,35.66,56.73-4.57-17.69-8.45-36.08-16.58-52.43,15.01,17.88,26.75,35.99,37.7,56.54-4.8-16.49-9.52-31.04-18.43-45.87Z"/>
  </g>
</svg>