<?xml version="1.0" encoding="UTF-8"?>
<svg id="Layer_2" data-name="Layer 2" xmlns="http://www.w3.org/2000/svg" width="742.97" height="1129.4" viewBox="0 0 742.97 1129.4">
  <defs>
    <style>
      .cls-1 {
        fill: #0c0c0c;
      }
    </style>
  </defs>
  <g id="Layer_1-2" data-name="Layer 1">
    <path class="cls-1" d="M742.97,299.81c-10.26-39.77-31.97-70.5-67.63-91.47-55.71-32.75-119.09-25.87-179.66-15.06-.51-.55-1.02-1.11-1.57-1.66-15.85-16.03-36.31-21.94-54.6-33.82l1.39-1.29c19.17,7.35,40.47,16.31,60.93,18.34-9.7-5.68-20.74-10.99-29.47-18.06l17.6,1.57.83-1.43c-6.05-4.34-12.15-8.32-18.62-12.06,14.18,3.83,28.55,8.41,42.92,11.23-15.48-7.85-31.04-14.46-47.26-20.7,12.1,1.99,24.11,4.62,36.4,4.07-9.47-6.14-21.76-7.71-32.34-11.5l25.87,1.62,1.39-1.89-6.79-5.91c12.24-.79,28.18,14.09,38.16,11.6-11.23-13.21-25.69-18.48-41.35-24.71,29.2-3.74,55.76-5.08,85.23-2.96-33.58-23.05-66.38-31.32-106.67-35.34,16.95-3.14,33.49-5.96,49.8-11.87-13.3.55-26.61.92-39.82,2.26,28.09-10.81,54.83-10.9,84.12-8.36l-6.33-4.53-.92-.6-1.71-1.25c-13.21-5.08-26.7-7.48-40.56-10.07,24.99-2.96,49.94-10.35,74.33-16.35-4.8-1.39-8.59-2.12-12.57-5.17,8.18-2.08,24.48-5.96,32.89-5.77-44.16-8.82-89.67-1.57-127.55,23.51-49.71,32.89-81.54,89.07-96.55,145.66-16.49-59.32-43.93-135.22-100.06-168.89-7.71-4.62-15.15-7.21-23.93-8.92l-3.23,1.06,11.41,9.56c-5.13-.32-10.21-.65-15.29-.79l19.49,10.49c1.85,12.24-7.44,5.82,9.7,21.53-3.93,4.48-7.48,5.08-12.93,6.98,2.59.28,5.77,1.66,8.96,3.05,2.77,1.15,5.64,2.36,7.99,2.63h-.18c-4.48.69-8.92,1.25-13.4,1.71.18,3.74.51,4.53,3.33,7.07,7.85,7.16,18.57,7.39,25.5,16.49l-2.82-.32c-1.2-.14-2.45-.23-3.7-.42-1.02-.14-2.08-.42-3.14-.46-7.16-.37-18.16,2.54-23.61,7.25,2.96.83,8.32,3.23,12.84,4.67l-17.6,4.99c4.94,1.02,10.58,3.56,15.61,3.74,4.62.18,9.1.97,12.75,4.2.23.18.46.65.74,1.25-9.29-.32-20.88.23-27.07,1.34,3.6.74,4.2.97,7.02,2.68,1.34.83,2.86,1.25,4.25,1.89,7.44,3.42,13.67,8.78,20.05,13.81-4.43,2.45-9.52,4.71-14.55,5.04,6.24,3.79,12.38,7.48,18.2,11.87-4.8,2.4-9.33,1.29-14.64,1.11l24.53,12.15c-6.74-2.17-13.26-4.39-20.23-5.82-18.29-3.7-39.04-18.62-56.41-26.42-54.74-24.58-120.66-22.82-171.71,10.81-3.83,2.54-12.52,12.43-15.2,16.21l14.09-7.02c.23,4.62-2.77,8.04-5.87,12.52,8.96-8.92,13.86-8.78,23.93-13.81l-5.73,7.9c6.19-2.22,11.32-4.57,17-7.85l-2.17,5.13c4.57-4.02,18.16-4.99,20.74-9.1,3.23-5.17,22.91-8.87,29.01-10.49-17.74,10.49-32.38,20.42-40.98,40.05,4.25-3.74,22.36-21.48,26.7-21.48-4.53,7.99-8.87,16.08-13.12,24.21,21.9-22.68,41.35-30.21,71.05-39.36l-32.34,22.17,1.57-.46c4.25-1.25,8.64-2.31,13.07-2.36,8.41-.09,21.2-8.18,29.1-11.78-18.71,14.83-32.43,27.12-45.27,47.35,23.79-17.23,45.55-26.42,74.15-32.66-14.78,7.62-30.72,14.78-44.26,24.48,15.61-3.1,29.33-11.13,45.13-14.18-10.53,9.42-21.25,18.66-31.46,28.36,5.17-2.63,25.22-15.57,28.97-14.78l-8.27,9.75,25.08-6.84c-12.98,11.32-24.71,22.91-36.17,35.76,16.31-10.39,32.43-21.16,49.61-30.12-15.2,16.68-29.94,33.31-42.82,51.83,14.09-11.5,30.35-22.08,48.09-27.9-5.73,6.33-12.15,11.83-18.52,17.55,5.17-2.08,19.63-9.79,24.25-8.36-3.93,6.24-8.36,10.67-13.3,16.08-3.05,3.37-2.03,2.08-3.56,7.07,6.33-1.57,22.31-5.04,31.18-5.04,1.57,0,2.96.14,3.97.37-3.83,4.9-6.98,11.6-13.63,12.52-13.95,1.94-33.63-2.73-48.55-2.54-60.93.74-120.16,20.74-165.06,62.92-20.65,19.4-37.79,43.15-51.19,68.05,14.6-16.26,28.69-33.17,44.95-47.86-4.62,6.74-25.96,32.98-25.32,38.44,19.17-18.11,34.6-38.9,56.68-54-12.1,16.35-18.89,31.97-24.99,51.23,4.43-6.61,20.51-36.36,25.32-37.65-1.02,10.9-6.1,30.86-2.86,40.98,6.84-4.94,7.62-18.2,11.78-25.78,4.11-7.58,9.33-14.88,14.18-22.04-3.37,11.64-8.82,26.98-7.3,39.68,6.88-18.94,20.51-40.98,26.93-51.83-4.16,13.12-9.75,26.66-10.16,40.51,3-5.17,7.44-10.07,11.5-14.41-2.96,9.98-6.38,19.73-6.98,30.17,7.71-15.34,13.4-31.55,21.2-46.75l1.06,2.68c3.09,7.81-.14,21.02-2.36,32.75,5.77-12.75,23.42-34.37,30.95-42.18l-15.66,35.99c14.04-19.49,26.52-37.79,45.6-52.99-9.15,14.83-16.54,29.06-23.56,44.9,10.99-14.23,21.85-28.32,34.37-41.3-12.15,21.39-23.7,43.05-35.16,64.77,11.73-14.27,24.07-35.02,37.93-46.57l-18.94,36.91c8.36-10.63,20.28-30.3,31.78-36.59.14,4.62-4.71,14-2.31,16.4l5.82-4.53c-4.67,13.21-13.54,23.88-18.15,37.23,6.65-8.87,13.95-21.57,23.14-27.72l-1.52,10.76c20.74-22.04,33.17-46.98,57.42-66.29l-1.11,1.89c-7.99,13.35-19.08,25.36-26.15,39.08l30.77-27.63c-12.57,15.43-32.48,37.33-38.07,56.59,2.68-3.79,5.36-8.22,8.31-12.38,3-4.2,6.19-8.13,9.89-10.9l.32-.69c-1.48,3.7-3.74,11.6-2.96,14.04,8.27-5.5,10.67-14.64,16.58-22.13,5.08-6.42,11.78-12.1,17.79-17.69-6.56,10.9-13.49,21.71-19.49,32.89,14.41-12.89,32.29-33.08,53.45-32.57,2.77.05,3.14.32,5.36,1.15-.14,5.4-.74,7.07-3.97,11.64-8.41,11.73-20.05,21.44-29.1,32.8-10.99,13.81-63.94,89.44-55.81,103.43.28-.88.51-1.76.79-2.59,4.3-11.87,11.5-22.68,18.16-33.26-6.1,14.78-12.98,29.75-16.31,45.46-4.11,19.49-10.63,105.65-4.94,122,4.99-9.01,5.82-26.42,7.58-36.96l5.08,35.52.79-1.76,1.15-60.98,10.35,48.04c-.65-23.65-3.79-49.25-1.11-72.71,1.06,9.42,1.76,19.13,3.93,28.36,5.08-15.48,4.25-36.45,5.41-52.89,3.1,12.94,1.06,32.89,7.11,43.79,1.52-17.19,3.05-31.69,6.74-48.55l-.28,34c6.14-17.79,8.22-32.8,8.36-51.69l.55,3.23c1.99,11.78,3.51,23.19,2.68,35.06,6.01-12.1,8.08-25.96,10.26-39.22,2.63-15.85-7.95-32.61-4.62-48,12.84,15.75,2.77,43.33,14.74,58.76,4.11-15.24.09-32.8.92-48.55,1.94,6.93,3.33,16.03,8.45,21.11,4.85-11.64-5.17-27.86-.6-38.44,7.3,23.05,9.61,46.61,6.7,70.59-1.29,10.9-4.48,19.26-2.49,30.4,2.63-7.02,5.73-20.42,12.06-24.48,2.63,30.49-13.07,60.42-14.41,90.96,4.85-15.8,13.86-38.25,20.93-56.13-1.94,26.93-30.03,91.56-10.67,121.03,3.46-4.3,3.6-12.1,4.76-17.88l-.23,10.16c-7.02,97.89-26.89,195.04-42.18,291.87-11.64,73.54-19.36,147.69-29.84,221.37,25.04-.55,50.03-1.06,75.12-.88-2.96-22.82-4.76-45.32-4.8-68.37-.09-91.19,9.38-182.52,17.69-273.25,6.01-65.32,7.44-151.06,31.37-211.53-3.33,22.77-6.51,45.5-9.15,68.37,7.16-20.47,12.7-55.53,23.24-72.67-.79,30.35-3.65,62.41-4.67,92.81,3.28-8.78,5.27-18.48,7.02-28.27s3.28-19.68,5.64-28.87c5.04,28.64-.92,57.24,1.02,86.06,1.76-7.25,9.65-62.09,10.86-63.84.05-.09.09-.14.09-.18,3.37,5.45,8.04,11.13,9.56,17.09.23-27.26-10.39-57.51-8.04-82.09,4.85,9.29,5.27,21.67,11.04,30.03l.09-4.39c.05-2.03-.05-4.07-.28-6.1-3.33-27.21-6.05-54.65-13.91-81.03,10.02,13.63,18.11,27.58,26.1,42.45-6.33-27.07-15.38-51.05-27.12-76.18l22.13,24.76c-1.06-8.87-1.89-18.02-4.34-26.61-6.65-23.24-26.38-56.17-17.51-80.47,5.45,13.81,5.68,28.55,11.41,42.78l1.15-31.09c6.84,11.73,10.67,26.56,11.41,40.01,5.5-4.16,7.62-20.42,12.2-27.3,5.54,6.19,4.67,16.54,6.51,24.44,2.31-4.25,4.34-8.27,5.96-12.8,1.8,9.61,5.08,19.63,5.87,29.38,8.82-13.12,16.54-26.93,24.48-40.61-6.93,27.49-12.24,57.56-12.06,86.06,8.45-12.06,16.95-24.02,24.95-36.4-5.91,21.07-9.98,42.27-13.26,63.89,8.78-19.63,17.65-38.39,28.83-56.82-7.67,24.81-22.31,59.96-14.46,86.25,8.08-9.89,14.55-24.62,19.22-37.1-4.43,16.68-9.61,34.23-12.98,50.95l2.36-2.96c13.58-17.23,18.85-38.34,31.88-55.34,3.83,11.92-11.09,37.65-15.24,49.75,7.07-9.19,13.91-18.89,21.67-27.53-6.01,13.44-9.84,23.42-10.21,38.44l1.39-3.88c-1.02,8.45-3.83,19.59-1.15,27.72,6.88-7.62,9.15-20.7,12.29-30.4-2.96,21.94-3.05,43.38-4.94,65.28.6-1.43,1.2-2.91,1.76-4.34,6.1-15.61,8.96-31.92,15.61-47.49-2.12,15.61-9.84,39.41-7.53,54.6,5.22-8.55,6.56-20.42,8.82-30.17l2.73,52.57c19.17-98.63,27.39-164.64-32.06-252.92-13.21-19.59-37.56-34.28-32.48-60.29.18-1.02.51-2.03.79-3.05l3.1-1.11c10.21,11.78,15.71,32.34,22.5,46.7l-3.33-48.83c7.62,19.13,13.81,38.3,19.77,57.98-2.08-20.28-4.2-40.56-5.68-60.93,8.82,17.88,17.88,34.88,29.06,51.42,4.39-1.43-3.42-19.59.65-18.39.14.74,10.58,15.98,15.85,24.67,2.03-8.18-1.76-17.14-2.73-25.55-.32-2.77-.6-5.54-.97-8.32,4.16,8.04,9.84,24.21,17.14,28.73l-2.73-13.86c7.76,6.38,15.01,14,21.76,22.04,6.79,8.08,13.07,16.58,18.89,24.71-21.71-48-57.65-101.4-109.3-120.85-3.46-1.29-6.93-2.45-10.44-3.6-4.71-5.96-5.45-12.29-6.88-19.54l1.15-2.86c5.87,5.4,13.95,17.83,20.7,20l-2.4-14.27c6.19,6.93,12.33,13.86,18.62,20.65-6.38-13.4-12.75-26.7-17.97-40.61,9.19,12.61,16.91,25.69,24.53,39.36-3.56-10.86-12.33-29.38-12.75-40.98,9.89,3.88,26.98,12.1,34.05,20.37,1.11,1.29,2.12,2.49,3.05,3.65.09.14.18.23.28.37,1.52,1.89,2.68,3.56,3.51,4.85-2.73-6.28-10.35-19.13-8.55-25.04,10.99,6.33,15.11,20.6,21.62,30.81-7.76-24.48-12.57-50.26-21.67-74.19,9.15,15.89,18.34,30.91,29.52,45.41-3.65-14.51-8.78-27.53-14.74-41.21,13.81,14.69,20.05,35.57,31.92,52.16.42-6.84-1.66-13.49,1.39-19.91,8.08,9.84,13.07,29.89,16.49,42.27.28-5.96.55-11.96.97-17.97,2.54,4.43,6.7,14.23,11.04,16.21-1.94-9.29-9.01-22.41-7.99-31.18,9.1,8.55,16.82,43.15,22.82,46.15,1.43-6.38,2.49-12.61,3.42-19.08,8.04,8.41,13.26,26.79,17,37.74l-.42-47.26c6.98,19.91,10.76,40.47,20.1,59.5,1.06,2.22,2.08,4.48,3.19,6.7-2.22-29.1-5.64-53.59-16.08-81.03,11.09,10.9,18.57,22.73,26.52,36.03Z"/>
  </g>
</svg>