<?xml version="1.0" encoding="UTF-8"?>
<svg id="Layer_2" data-name="Layer 2" xmlns="http://www.w3.org/2000/svg" width="885.07" height="1066.35" viewBox="0 0 885.07 1066.35">
  <defs>
    <style>
      .cls-1 {
        fill: #0c0c0c;
      }
    </style>
  </defs>
  <g id="Layer_1-2" data-name="Layer 1">
    <path class="cls-1" d="M885.07,488.89c-2.08-2.82-4.25-5.54-6.47-8.27-75.3-92.02-169.26-110.55-281.52-122.51-10.81-13.35-22.04-25.96-33.86-38.39,10.16,4.76,20.6,9.05,30.91,13.54-7.95-9.84-14.64-20.93-21.67-31.46,18.11,16.95,40.98,23.61,59.27,40.24-9.98-14-25.96-33.26-31-49.57,18.2,7.62,36.17,14.97,54.83,22.22-11.09-16.58-25.87-29.98-41.53-42.13,27.99,11.87,55.85,24.76,84.86,33.86-14.09-12.2-26.38-25.92-38.9-39.73,17.65,10.35,34.51,22.5,51.55,33.86-11.09-14.83-22.27-29.52-33.68-44.12,12.89,5.54,26.33,11.13,38.8,17.46.92.46,3.88.28,4.76.79l-2.03-6.19,12.93,7.07c-1.89-7.53-8.22-14.51-12.66-20.83l17.46,2.31c-10.81-8.13-20.79-15.2-33.12-21.02,22.64.32,46.89,1.11,69.34,4.16l4.39.65c-5.82-10.26-26.47-14.09-37.42-17.51,19.03-.28,44.67,4.48,62.6-.51-6.56-2.86-13.63-7.3-20.56-9.15,19.26.79,37.79.65,57.01-.97-78.76-29.89-161.41-7.25-235.37,24.85-15.43,6.7-34.92,19.54-51.51,20.7-14.41-9.15-29.57-12.7-45.97-16.68l3.6-1.43c19.13-7.62,40.7-12.75,59.08-21.39-20-9.15-43.89-7.81-65-14.18,14.78-2.36,74.42-4.39,82.41-13.67-11.27-9.84-56.04-16.03-72.39-17.83l2.91-1.2c20.37-8.31,43.24-5.73,65.04-10.44-14.97-2.22-30.12-.65-45.23-.6,21.39-7.39,40.61-13.95,63.47-15.52-2.77-4.11-12.15-5.41-17.18-6.33-13.95-2.54-28.5-3.37-42.64-4.67,28.92-5.4,57.98-13.03,86.76-19.45-20.93-1.94-41.85-3.93-62.78-6.24,13.49-9.15,26.75-14.97,42.08-20.33-18.34,2.4-36.54,3.79-55.02,4.71,16.82-8.18,34-14.55,51.6-20.83-14.04,1.15-27.72,3-41.62,5.31,27.21-22.13,38.44-21.07,70.77-28.23-15.29-.69-30.63-1.62-45.96-.97,9.79-10.02,33.4-37.37,42.5-44.03,3.51-2.59,3.23.65,6.42-4.25-33.58,2.54-78.86,39.27-100.11,63.94-31.83,37-53.96,83.61-72.11,128.47-1.71-24.48-3.46-48.55-8.55-72.62l-.55,3.42c-3.97,24.57-5.41,54.06-8.8,80-4.38-10.34-9.21-21.16-11.15-31.31-1.99-10.58.6-22.64-2.12-32.85-1.29-4.8-2.4-5.04-6.47-7.25-4.8,6.42.65,14.92-5.5,18.85-8.36-20-7.3-43.93-21.62-61.35-2.17,5.5-1.15,9.93-.65,15.71-7.99-9.75-12.7-22.27-19.96-32.66-10.76-15.34-24.67-29.43-36.54-44.12,10.86,28.87,22.31,57.88,28.92,88.1-13.17-11.96-26.33-22.13-41.44-31.55,9.01,10.26,37.88,37.14,38.2,50.58-4.07-3.46-6.84-5.87-11.69-8.36,6.14,14.18,17.05,26.19,26.42,38.39l-39.59-22.17c12.98,14,26.98,25.32,42.22,36.73-20.28-3.7-49.94-15.2-69.2-13.81,11.41,8.87,32.98,18.76,49.8,30.77-18.62-5.36-29.7-3.74-48.04.83,9.23,2.88,19.44,12.52,27.31,20.02-28.87-4.11-65.45-34.91-93.14-25.15,2.63,2.26,4.99,3.79,8.08,5.31-3.14,2.12-16.26-1.57-30.63,5.87,6.33,3.33,12.33,8.73,18.94,11.41-5.45,4.39-13.77,4.76-17.6,10.12,4.62,4.2,12.7,2.22,14.74,6.79-68.23-4.11-135.82-18.85-202.8,3.79-8.5,2.86-18.89,5.91-25.64,11.97-3.83,3.51-4.25,4.99-5.22,9.84,5.4,1.06,6.79.09,11.96-1.57,15.89-5.08,32.38-4.02,48.64-7.9,3.79-.88,2.26-.74,6.33-.18l-14.18,15.89c14.78-8.04,29.24-15.38,45.04-21.25-9.38,8.92-18.8,17-24.9,28.6l.92,2.31c5.54-3.05,12.47-8.64,18.57-7.34l2.13,3.7c7.44-4.57,13.81-10.21,20.46-15.89-6.88,10.12-13.95,20.1-20.1,30.72,6.98-3.83,15.85-10.39,23.93-10.12-1.66,6.1-8.27,5.31-8.27,10.62,6.05-1.52,11.92-2.82,18.11-3.74,16.72-2.45,32.38-17.83,44.58-28.87-8.27,14.32-16.91,27.95-26.42,41.44l23.93-19.82c3.19,2.68-1.66,6.94-1.24,10.91,7.95-4.53,21.1-16.77,29.97-18.67-1.15,6.14-6.33,13.54-3.88,18.99,9.93,2.08,24.53-8.55,33.03-13.49-11.55,14-21.9,27.39-31.04,43.05,9.75-8.68,19.08-17.65,28.32-26.98-5.59,10.81-10.95,21.39-15.38,32.71,8.78-7.21,18.25-14.32,26.56-21.94-7.71,12.2-20.79,23.51-26.52,35.85,14.04-5.82,24.9-15.57,35.16-26.33-4.85,9.98-9.52,20.14-14.92,29.8-69.53,6.74-152.31,45.23-197.17,99.23-24.99,30.07-38.8,62.64-44.53,101.12,8.32-19.26,16.12-35.89,29.61-52.25l-3.83,8.73c13.54-18.94,24.62-41.35,40.7-58.02,1.89-1.94,3.74-3.93,5.68-5.87l-17.05,39.22c8.78-12.33,18.48-30.9,29.94-40.51l.55,8.64c3.93-2.82,13.44-17.97,16.49-17.88l-.65,3.93c-.6,3.56-1.02,6.98-1.29,10.58,14.32-6.79,29.61-31.14,42.78-42.87.97-.88,1.94-1.76,2.91-2.68-15.98,27.49-21.11,56.41-41.3,81.81,23.01-16.72,37.65-39.36,58.95-57.47-5.31,13.44-7.62,25.64-19.31,34.92,5.27,2.77,6.14,2.77,12.15.51,15.57-5.91,32.15-26.75,43.42-38.76-6.01,12.75-11.6,25.27-16.31,38.53,12.15-11.46,22.54-23.42,32.89-36.45-4.02,13.03-8.5,26.05-11.83,39.27,10.72-12.75,20.19-25.41,29.01-39.54-4.2,14.28-7.99,28.18-10.44,42.87,13.12-12.47,22.08-28.92,31.55-44.21-1.52,5.82-5.45,15.48-3.6,21.02,12.94-12.98,20.05-30.77,33.03-44.39l-28.41,71.23c10.26-13.91,19.22-28.46,29.06-42.59l-9.56,31.37c5.73-7.85,12.38-20,21.07-24.44,2.86,3.88,2.36,1.85,1.66,7.02-1.06,8.27-4.53,14.46-10.44,20.28-13.3,13.21-30.95,22.82-45.32,35.02-64.86,55.02-132.26,119.51-157.44,203.4-3.33,11.09-5.87,25.64-6.47,37.23,5.27-11.83,11.04-23.61,19.4-33.63-.6,5.54,1.25,13.44.55,18.99,12.8-23.28,23.61-47.95,34.6-72.11-4.3,15.43-21.48,59.45-17.97,72.94,17.32-21.44,28.87-57.19,43.56-82.09-5.27,21.76-10.16,42.55-11.73,64.95,12.38-30.17,23.14-60.29,32.38-91.61-1.43,16.68-3.93,36.77-1.52,53.22.51-23.24,6.01-42.18,12.57-64.26-.88,19.73-1.76,39.36-1.99,59.09,5.59-21.99,11.09-44.07,17.28-65.88-.92,20.1-1.15,40.47-3.88,60.42,5.87-11.18,10.35-22.08,14.41-34.05l1.39-.37,2.82,8.13c1.06-5.82,1.76-11.13,1.99-17.05.28-6.74,1.99-12.1,4.39-18.39.18,21.62-.65,42.22-2.73,63.7,3.33-8.22,15.75-38.62,25.69-57.98-.28,6.7,3.51,12.7,5.96,18.62-.18-1.02-.37-2.03-.51-3.05-1.34-10.58,9.84-37.51,14.23-47.72.88,17.74.28,34.83-1.06,52.53,6.42-20.6,12.66-41.25,19.73-61.67,2.08,14.55,4.25,29.01,5.45,43.66.32,3.88.18,2.36,1.15,7.16,5.04-27.39,10.81-52.76,21.67-78.49l1.89,51.14,3.93-15.94c2.45-10.49,6.01-17.6,11.69-26.7l-.18,1.89c7.02-10.63,10.21-20.97,13.72-32.98.79,15.57,2.63,30.21,5.96,45.41.05-22.13,3.05-43.89,4.8-65.92,5.5,19.03,10.39,37.33,13.17,56.96l.6-3.46c2.96-18.62-3.14-34.65-2.03-52.71,6.47,6.1,9.38,17,12.7,25.13-.6-17.18-1.66-34.37.32-51.56l.37-3c.05-.6.14-1.2.23-1.8.65,1.15,1.39,2.31,1.99,3.51,4.62,8.5,3.23,18.39,7.3,27.39.55-14.83,2.26-26.29,12.66-37.93.18,5.17.37,10.39.65,15.57l10.49-13.77,8.45,35.85,2.31-34.37c15.52,64.07,1.94,154.94-1.71,221.56-3.37,61.99,3.05,123.48-.74,185.43-2.26,37.83-9.33,74.24-13.72,111.66-4.02,34.14-6.01,69.39-6.47,103.76,24.85-3.74,51.19-5.04,76.27-4.94-1.48-104.5,2.91-208.99-1.85-313.44-3.93-84.95-16.54-169.31-19.17-254.12-.55-18.34,9.79-41.95,15.75-59.46,4.16,5.73,7.11,17.97,11.92,20.79l4.2-10.12c3.05,10.3,5.64,20.88,5.64,31.51,2.31-2.68,1.71-1.48,2.45-3.19,3.28.46,7.25-.14,9.15,2.91,1.89,2.96,1.85,5.31,2.08,8.73,3.97-1.48,5.77-2.86,9.01-5.45.09,7.62-.51,14.78,3,21.76,1.52-6.1,3-18.34,7.11-22.54,1.71,11.64.05,23.01-1.15,34.65,4.02-1.06,6.47-6.75,8.87-10.12,2.86-5.73,4.16-11.46,10.02-14.32,3.74,5.27,3.88,10.44,4.57,16.68.6,7.53,1.8,13.03,4.94,19.91,2.91,6.42-.18,10.72-2.26,17.28,4.99-2.22,10.3-13.91,13.35-18.89,2.63,20.65,7.53,40.01,12.98,60.1,2.03-17,3.56-34.28,7.76-50.86,1.76,13.44,3.1,26.98,4.57,40.42l4.71-31.6c5.64,10.49,2.82,37.83,5.5,50.95,4.16-16.77,5.27-34.19,9.56-50.86,2.17,17.6,4.62,37.37,4.9,55.11,2.96-19.82,5.41-39.59,7.25-59.55,7.02,35.25,15.66,71.33,30.67,104.13.42-24.67-.37-48.97.88-73.64,11.69,29.24,21.07,59.41,31.92,88.97-1.43-18.71-1.99-37.46-2.68-56.22,5.64,8.18,10.26,15.52,13.44,24.95.28.79,1.43,3.93,1.66,4.71,1.43-8.45-3.79-14.51-1.99-22.22,3.14,2.22,15.29,47.63,18.76,56.59,2.49,6.51,4.25,10.95,10.86,13.91-6.97-25.29-2.03-32.2-4.43-45.13,9.61,22.5,17.28,45.73,29.7,66.94l2.08,3.51c-1.57-12.15-2.82-24.3-4.16-36.45,10.53,22.91,19.86,48.32,37.28,66.89-8.78-43.52-25.18-81.58-43.7-121.63l24.25,19.73c-1.34-2.59-2.73-5.13-4.11-7.67-22.04-41.62-67.59-93.92-102.65-124.59-9.47-8.32-59.27-41.67-61.86-46.2l5.96-6.24c7.76,1.52,18.99,17.14,24.07,23.05-4.16-13.9-8.27-27.39-10.26-41.76,6.1,14.23,17.92,14.05,26.29,43.7,1.43-21.11-7.39-46.38-12.66-66.89,11.96,24.21,23.93,48.41,35.34,72.9.14-18.43-1.66-36.59-5.13-54.65,11.87,23.93,26.66,46.29,38.67,70.22-6.19-21.07-14.41-41.81-21.34-62.69,15.24,24.81,28.73,50.31,40.28,77.06-2.59-18.06-4.11-35.89-4.94-54.14,7.48,15.75,15.52,30.07,25.27,44.53-.97-16.31-20-54.56-26.56-71.47,14.78,22.87,29.2,46.01,45.92,67.49-5.64-20.46-12.75-39.68-20.6-59.36,14.14,20.23,29.06,42.92,49.2,57.65,1.48-5.36-26.61-57.47-30.77-66.2,14.37,15.57,28.18,31.46,42.04,47.49-1.85-3.6-2.31-4.25-2.03-8.45,8.27,3.74,14.83,13.03,20.83,19.73-4.94-17.46-12.01-34.51-18.43-51.51,31.78,15.89,55.39,31.64,82.46,54.19Z"/>
  </g>
</svg>