<?xml version="1.0" encoding="UTF-8"?>
<svg id="Layer_2" data-name="Layer 2" xmlns="http://www.w3.org/2000/svg" width="768.45" height="1086.81" viewBox="0 0 768.45 1086.81">
  <defs>
    <style>
      .cls-1 {
        fill: #0c0c0c;
      }
    </style>
  </defs>
  <g id="Layer_1-2" data-name="Layer 1">
    <path class="cls-1" d="M767,431.8c-5.54-62.97-36.86-131.57-85.88-172.5-59.64-49.85-122.74-42.55-194.9-35.76l-35.8,7.58-12.1-18.2c6.74,1.57,12.7,5.73,19.49,4.34-1.43-2.63-2.77-5.31-4.11-8.04,3.88.05,2.36-.37,5.91,1.29,5.64,2.63,10.39,5.27,16.63,6.14,1.43.18,2.91.32,4.34.51-6.42-6.98-15.29-12.52-22.87-18.2l40.93,16.17c-8.59-7.02-51.19-31.32-52.85-34.05,24.3,4.02,48.78,14.51,71.97,22.73-2.08-2.03-4.16-4.07-6.28-6.05-15.06-14.46-31.92-21.39-49.06-32.29-.69-.46-1.39-.92-2.08-1.39,29.15,3.14,53.31,13.21,80.47,22.91-2.54-3.37-4.3-5.64-5.77-9.61,3.05.65,5.77,1.43,8.73,2.45l3.05,1.11c-1.43-8.18-8.59-17.46-12.8-24.72,14,13.49,26.33,27.67,38.44,42.82-8.55-20.33-19.22-35.94-33.03-52.99,17.51,13.95,34.23,27.44,54.05,37.97-12.75-11.41-24.21-24.85-35.16-38.02l1.34-.65c6.14,4.76,11.5,10.62,17.79,15.01,12.7,8.87,26.52,14.83,38.94,24.58l-23.74-45.5c12.98,14.51,26.24,28.6,39.82,42.5l-14.46-39.17,26.38,31.18c-8.41-23.28-15.66-43.75-32.85-62.46,27.02,13.17,39.22,37.97,54.47,62.5-4.34-11.97-9.01-25.08-15.57-35.94-4.56-7.59-15.55-16.58-17.89-24.91,15.62,11.58,51.6,49.01,64.46,60.94l-9.01-14.28c12.8,7.95,18.02,22.17,24.11,35.29-5.31-29.38-13.77-48.04-30.3-73.04,11.83,14.51,25.92,27.12,38.67,40.84-11.83-30.77-33.12-67.12-64.72-81.91-9.48-4.45-20.79-2.67-30.63-6.94,18.43-5.3,36.81-1.8,54.98-.22l-12.57-6.93c5.22-3.97,23.98,5.27,34.6,7.48l.32-2.26c-11.55-6.1-24.3-10.3-36.5-15.01,18.43,2.73,52.89,17.69,69.66,12.2-9.12-13.03-55.82-31.25-74.18-39.73,4.53-.88,9.1-3.28,13.61-3.79-23.01-12.01-54.33-10.81-79.87-11.04,12.47-4.11,24.48-9.7,36.59-14.78-51.42,6.33-100.11,16.82-140.81,50.95-42.5,35.71-84.72,102.6-89.85,158.55-33.35-65.64-68.51-139.37-137.16-174.9-60.1-31.14-118.59-26.47-181.14-6.93l16.12-2.31c22.22-3.28,48.37-2.12,71.23.32-5.04-.14-10.12-.88-15.2-.6-18.2.97-36.22,4.02-54.14,7.25l.37,1.15c13.03.6,26.01.55,39.04.46-13.07,2.73-25.92,5.68-38.81,9.42,12.57-.46,60.24,3.33,69.53,8.78-9.56,4.3-26.7,2.73-37.42,3.6-23.88,1.89-74.98,10.16-92.72,25.59l5.59,1.71c-1.25,3.74-6.24,5.17-9.66,7.02,7.35,1.94,16.72-.74,24.25-2.13-9.42,4.39-22.04,11.5-26.98,20.14,3.74,1.39,13.77-6.28,18.11-8.13,1.48,3-9.1,10.95-11.5,14.04-1.94,2.54-2.91,6.74-3.56,11.09-.69,4.34-1.06,8.82-1.8,11.97,4.53-5.17,8.92-10.21,13.95-14.74-5.08,8.68-7.71,19.22-9.65,28.92,3.33-6.1,6.28-10.3,10.72-15.01-2.45,7.16-3.93,15.57-6.51,22.22,12.8-14.23,24.67-30.21,41.3-39.87-5.54,10.26-11.04,22.22-17.46,29.94,16.31-14.64,32.48-29.43,49.89-42.73-12.89,16.95-22.87,32.75-30.67,52.66,13.35-19.36,27.63-38.02,43.75-55.16-9.42,15.15-18.39,30.63-27.39,46.01,12.43-10.9,22.73-23.84,33.35-36.49-3.7,9.05-5.77,19.77-9.29,28.87,4.11-3.46,7.81-8.08,13.12-9.1-1.48,5.03-3.79,9.19-2.26,14.37,3.83-4.48,6.51-9.52,12.29-11.13l1.25,8.22c4.25-4.48,9.47-9.66,15.29-11.92,9.65-3.79,14.74-10.07,21.57-17.51-10.39,16.4-26.05,36.45-27.72,55.99-.14,2.03-.28,4.11-.55,6.14-.79,5.17-1.43,9.98-1.43,14.69,0,5.87,1.02,11.55,4.2,17.46-4.2-18.25,6.05-32.57,13.67-48.74l-3.56,43.42c9.1-22.36,20-42.69,33.4-62.78-10.9,26.33-18.29,47.67-19.22,76.64,5.82-13.72,11.41-30.26,21.53-41.35l.32.28,2.91,15.66c14.46-9.75,26.33-27.39,38.76-39.96-5.5,11.73-17.46,43.29-18.62,55.07l.69.28c16.21-30.67,40.28-50.58,68.19-70.26-10.76,11.92-33.49,33.26-34.46,49.29,3.46-1.52,6.88-3.09,10.3-4.67-2.13,14.23-14.09,29.7-18.29,44.76,7.07-12.15,13.67-24.95,22.73-35.8,3.37,2.86.51,13.21,1.43,18.39l11.23-15.24c2.54,3.28-1.94,12.47-1.52,17.69l4.71-3.56c6.19-9.7,12.52-19.17,17.23-29.75-.28,10.07-1.94,21.9,0,31.74,3.65,5.82,4.34,8.82,4.9,15.43-3.23,4.8-5.41,7.25-11.46,8.18-22.73,3.6-52.34-8.5-75.12-10.81-61.76-6.33-147.69,12.1-189.96,60.89-23.61,27.21-34.74,59.78-42.82,94.29,11.18-18.66,21.94-37.79,34.19-55.76-8.87,20.79-20.19,41.53-25.96,63.34,1.25-.18,2.45-.42,3.7-.65.78-.09,1.57-.18,2.36-.32-.14,5.22-4.48,16.17-2.31,19.86l9.05-7.25,6.7,29.43,1.99-14.55,1.29,9.61c.83-.55,1.57-1.11,2.36-1.76,8.27-6.79,14.78-30.58,18.8-40.98-4.53,18.52-8.64,37.97-3.28,56.91,6.98-10.26,11.32-22.41,16.26-33.72-1.06,10.12-2.49,19.82-.74,29.98,5.45-8.73,5.54-23.14,6.79-33.26l3.05,55.07c10.02-58.21,10.81-95.72,31.78-153.79-1.71,15.89-15.34,113.69-11.41,122.14l6.61-29.61c1.39,20.05,4.53,39.31,8.08,59.04.83-25.13,4.62-50.08,7.76-74.98.97,21.39,1.25,43.01,3.42,64.31,5.59-24.81,10.07-49.15,12.38-74.47,1.43,20.19,2.31,40.56,8.5,60.01l-1.39,1.89c-28.41,38.99-67.49,68.51-79.83,117.29,9.93-11.41,28.41-35.52,42.13-40.51-2.49,7.62-8.59,14-13.35,20.37-19.82,26.38-37.23,50.63-42.32,84.08,7.62-9.52,15.06-18.29,24.11-26.56-20.05,34.56-28.64,52.8-31.64,93.64,5.54-13.03,9.19-25.96,16.08-38.43-1.89,8.68-6.38,20.65-4.71,29.29,8.5-13.35,16.58-26.24,27.49-37.79-9.01,19.82-30.91,56.91-28.73,77.98,11.41-6.19,21.81-23.56,29.57-34.09-7.25,13.81-13.9,29.24-13.54,45.27l2.54-3.19c2.22-2.82,4.44-5.04,7.21-7.3l1.34,1.43-5.96,20.6,10.87-7.63c3.02,16.16,3.09,32.95,4.93,49.34,4.2,37.74,16.26,74.47,35.71,107.08-9.75-51.92-14.46-105-15.52-157.81,11.13,23.88.79,64.26,19.26,83.43.94-18.03-6.15-21.22-1.01-47.47,1.55,14.38,1.56,28.48,5.63,42.48.92-25.59,1.99-50.22-1.25-75.76,6.33,16.49,8.27,37.47,16.82,52.25,5.59-18.85-10.3-44.39-6.42-60.29l.97,2.77c6.28,17.46,15.52,32.75,20.79,50.68-1.71-20.51-3.83-41.07-3.79-61.67,5.17,10.99,8.87,28.09,15.94,37.33-3.7-23.28-10.86-46.01-17.23-68.69,10.53,20.97,20.6,42.5,33.21,62.32-2.08-12.8-6.24-28.97-3.23-41.67,1.99-8.32-1.94-18.16-1.34-26.89l.6-.23c5.31,9.1,2.31,35.53,13.07,38.39,7.9-23.56-5.41-64.86-11.55-88.7,17.09,24.85,25.64,38.62,27.67,69.02,1.89-9.84,4.8-20.97,4.48-31-.42-13.4-5.17-27.67-3.37-40.88,2.59,4.44,4.44,7.58,7.95,11.41,2.86-18.71-2.73-41.62-5.27-60.24,3.88,9.84,7.53,19.91,12.01,29.52-4.02-28.27-10.12-55.25-17.18-82.92,7.9,17.65,15.94,35.29,23.56,53.03-2.63-39.73-12.75-73.82-21.9-112.16,9.42,22.87,18.48,45.96,31.18,67.31-3.93-16.54-6.93-32.34-8.22-49.29,3.79,10.26,7.21,20.97,11.92,30.86.18-7.67.28-15.2,1.15-22.87,2.03-17.28-3.6-39.73-5.91-57.05,7.16,20.1,15.29,39.04,24.58,58.21-1.39-26.52-7.53-52.2-13.86-77.98,2.31,5.96,4.62,11.92,6.79,17.88,3.23,8.87,8.27,15.71,13.81,23.19,2.17-20.05-6.7-65.88-9.1-88.88,4.3,2.77,8.36,22.45,9.61,28.13,1.62,7.25,3.14,14.46,5.22,21.62-.6-16.54-1.8-33.26-1.66-49.8,6.84,22.08,9.15,37.88,6.24,60.93,5.22-16.17,8.22-37.56,16.26-52.2,2.82,20.88-9.75,52.85-15.57,73.41,13.54-25.5,26.42-51.79,38.07-78.21-.23,19.49-6.33,41.44-12.52,59.82,15.11-21.02,21.39-36.36,28.6-61.07,8.87,54.33-32.2,91.65-31.78,112.77l1.76-1.29c3.7-2.77,5.41-4.57,10.12-5.22-4.67,17.83-22.77,20.7-28.13,34.09,7.21,0,24.39-14.78,30.49-19.17l-27.53,43.29c15.15-7.44,27.49-19.26,42.27-26.24-9.65,13.63-26.19,24.95-33.86,37.42l9.75-1.57c-6.24,9.84-16.49,18.11-24.85,26.19,18.34-11.64,36.03-24.72,55.11-35.11-20.6,21.76-42.55,42.18-63.06,63.94,9.75-5.17,27.95-18.2,38.07-18.52-2.45,6.51-8.82,12.98-15.06,16.12-.79.42-1.66.65-2.45.97l4.57,2.68c-11.36,15.84-22.87,30.9-33.31,47.49,13.72-6.51,24.71-14,36.54-23.61-11.78,18.15-24.44,36.17-34.65,55.25.92-.55,1.89-1.11,2.82-1.66,9.33-5.59,55.02-51.23,59.27-50.54-8.45,11.32-27.76,28.27-31.64,40.65,5.59-4.48,11.13-8.96,16.77-13.35-5.82,8.78-11.87,17.18-17.92,25.78-1.94,2.68-1.25,1.99-1.85,6.1,10.81-3.33,23.61-16.17,32.71-23.37-14.69,16.91-25.5,29.15-33.35,50.31,10.3-10.21,20.33-19.63,32.01-28.23-13.72,18.34-18.62,38.44-31,56.78,9.29-7.76,18.34-15.57,28.41-22.27-3.56,7.35-17.74,31.32-16.17,37.79,4.8-2.45,7.07-6.51,10.02-10.86,1.2,9.29-10.99,16.95-3.1,25.22l4.9-3.6c1.94,7.58-9.61,17.05-9.01,26.47,4.2-3.7,8.36-7.35,12.7-10.81-1.71,8.82-4.76,17.28-7.58,25.82l18.99-15.85c-4.67,12.94-9.52,25.78-13.63,38.9,11.65-12.91,21.66-27.25,30.47-42.31-3.33,13.35-6.09,27.2-7.69,37.23,5.64-14.78,11.5-28.5,19.49-42.18-3.56,101.54-39.68,217.68-81.54,310.02,25.73.18,51.42.42,77.15,1.71,40.88-103.02,50.95-211.9,63.8-320.97,5.54,18.99,11.27,37.93,16.26,57.05-.23-26.61-7.53-53.17-6.38-79.46,7.81,12.1,15.85,24.07,22.41,36.86-.28-32.71-7.39-61.86-17.32-92.85,7.48,14.14,15.24,27.86,23.84,41.35l3.05-2.54c1.62-4.34,2.22-5.22.14-9.7-3.79-8.08-12.61-13.58-13.67-22.82,7.53,4.2,13.49,13.86,19.63,20.23-9.75-23.7-21.02-45.78-32.85-68.46,11.36,13.03,22.54,26.33,34.32,38.94-5.05-10.19-11.83-21.1-13.93-32.36l9.45,1.18c-5.64-13.44-14.37-29.29-24.21-39.96,9.7,6.75,18.94,13.72,30.03,18.11-2.77-5.36-8.08-15.2-7.67-20.7l10.63,5.5c-9.52-29.84-32.75-58.62-44.35-89.85,12.52,8.82,24.9,16.72,38.44,23.93-13.35-16.95-26.89-33.58-37.97-52.11,12.61,8.96,25.22,18.06,38.16,26.61-10.49-13.54-20.74-27.12-32.8-39.27l27.44,8.18c-17-33.17-36.54-44.12-51.88-84.12,5.87-4.76,6.93-7.58,9.19-14.46-3.33-21.07-14.64-35.85-20.83-55.44-2.63-8.22-4.43-15.57-.18-23.1l-.23.65,2.36-1.62c.97-6.61-.28-12.8-1.25-19.31,9.75,16.03,17.83,28.92,24.25,45.96l-1.25-28.27c5.77,19.82,10.86,43.42,19.68,61.81,9.66-15.91,14.39-33.6,22.39-50.25,2.92,25.49-2.3,47.43-7.47,72.24,8.59-14.97,13.44-34.28,19.17-50.68,2.08,31.27-5.91,61.49-9.47,92.39,5.31-10.26,9.33-20.97,15.66-30.72-1.29,13.26-2.22,26.52-3.05,39.77,9.75-12.15,19.73-23.51,31.37-33.91-4.71,11.83-27.9,52.25-25.41,61.07l6.24-4.62c3.33,6.14-.18,21.67-.65,29.47,3.7-8.41,7.44-15.8,12.75-23.24l1.43-2.03c-2.63,16.26-5.73,32.75-10.26,48.6l-.55,1.89c12.15-6.74,21.99-60.42,33.31-72.94,1.94,4.8,1.39,8.5.14,13.35-8.41,32.8-22.27,60.1-25.36,94.98l-.28,3.7c10.07-24.95,17.97-51.83,31.14-75.35-2.63,14.92-5.36,29.89-9.93,44.35-6.74,21.44-18.8,42.78-19.31,65.74l2.68,1.02c10.58-13.07,10.02-36.82,19.22-51.88.74-1.25,1.57-2.45,2.4-3.7-4.11,29.8-11.36,59.69-17.28,89.16,14.74-22.59,24.39-47.07,34.55-71.93-6.51,33.68-20.19,64.3-27.44,97.43,17.37-23.79,28.78-47.3,41.39-73.68-8.96,42.41-27.63,77.47-33.4,121.77,8.55-11.13,16.21-22.87,24.07-34.46-5.36,15.85-10.72,35.94-10.58,52.76,6.14-4.48,10.95-9.47,16.08-15.11,1.06,4.94-9.98,22.04-12.84,27.63,9.42-5.08,20.14-19.63,27.72-27.81-2.36,9.7-3.56,19.82-5.17,29.7,11.87-19.59,24.62-38.57,37.33-57.56-5.54,26.79-13.54,52.99-21.11,79.27,9.19-8.87,16.49-17.6,23.79-28.09-3.56,19.31-4.99,39.17-7.11,58.67,10.26-20.97,18.43-42.78,26.79-64.58-4.76,30.72-13.72,57.42-12.52,89.16,7.95-21.8,13.03-45.13,18.99-67.54,2.03,35.71.51,71.6,2.03,107.36,6.01-27.26,8.41-55.53,16.72-82.23,1.34,24.95,1.15,49.01,1.15,73.91l1.76-1.76c10.3-43.98,12.8-86.85,8.82-131.89l31,40.33c-5.31-27.21-13.86-50.45-25.27-75.72l48.64,49.15c-9.61-24.85-24.16-45.6-38.85-67.58,15.15,15.24,29.94,30.72,47.17,43.7-14.37-33.86-35.85-59.59-61.26-85.6,18.99,13.12,35.71,25.82,50.68,43.52-9.52-21.62-22.68-38.39-36.31-57.38,15.57,9.93,30.17,28.78,44.49,41.39-19.96-40.28-37.97-86.29-67.54-120.25,18.2,13.72,30.91,28.83,44.67,46.84-12.75-45.97-43.24-83.94-69.89-122.7,15.34,12.24,28.64,24.02,38.44,41.3-3.46-34.79-14.83-50.45-38.34-74.98,4.11-9.93,8.41-19.63,10.44-30.26l4.53-23.56,1.06.37c.37,13.4-2.54,54.23-1.15,62.09,8.68-14.55,9.79-35.02,12.06-51.51.09,1.43.14,3.6.37,4.9,3.56,20.42-1.48,41.44-5.96,61.44,4.88-7.71,8.27-16.31,11.96-24.62.35,4.88,1.92,10.97,3.93,15.24,4.53-14.14,5.91-27.26,6.93-41.99,3.97,28.04,1.02,51.23-4.25,78.95,5.87-14,8.55-29.66,16.77-42.5l3.28-.14c6.88,15.43,1.89,35.06-.46,51.09,10.07-21.67,19.68-43.43,28.92-65.46-2.45,30.03-7.21,59.41-12.24,89.07,13.86-23.79,22.45-45.27,29.75-71.83-1.71,36.26-1.85,71.56-8.5,107.5,10.44-23.93,16.31-46.61,21.48-72.2,1.71,21.25.23,42.78-.51,64.07,10.39-31.46,11.09-63.34,8.22-96.13Z"/>
  </g>
</svg>